<svg xmlns="http://www.w3.org/2000/svg" xmlns:xlink="http://www.w3.org/1999/xlink" width="800" zoomAndPan="magnify" viewBox="0 0 600 449.999984" height="600" preserveAspectRatio="xMidYMid meet" version="1.0"><defs><g/><clipPath id="e054c0ef6c"><path d="M 0.332031 23.625 L 599.664062 23.625 L 599.664062 426.367188 L 0.332031 426.367188 Z M 0.332031 23.625 " clip-rule="nonzero"/></clipPath></defs><path fill="#1c1c1c" d="M 583.027344 60.183594 C 573.316406 57.332031 569.324219 41.800781 575.257812 33.289062 C 576.730469 33.210938 578.136719 33.199219 578.847656 33.886719 C 573.710938 40.652344 576.882812 53.761719 584.222656 56.597656 C 584.691406 58.664062 583.558594 59.121094 583.027344 60.183594 " fill-opacity="1" fill-rule="nonzero"/><path fill="#1c1c1c" d="M 551.378906 70.472656 C 551.371094 70.519531 551.363281 70.5625 551.347656 70.601562 C 551.363281 70.5625 551.371094 70.519531 551.378906 70.472656 " fill-opacity="1" fill-rule="nonzero"/><path fill="#1c1c1c" d="M 551.300781 70.722656 C 551.28125 70.753906 551.257812 70.785156 551.234375 70.816406 C 551.257812 70.789062 551.28125 70.753906 551.300781 70.722656 " fill-opacity="1" fill-rule="nonzero"/><path fill="#1c1c1c" d="M 551.230469 70.816406 C 551.136719 70.917969 550.984375 70.96875 550.753906 70.941406 C 550.980469 70.96875 551.132812 70.917969 551.230469 70.816406 " fill-opacity="1" fill-rule="nonzero"/><path fill="#1c1c1c" d="M 488.605469 73.328125 C 494.988281 80.292969 498.363281 90.261719 504.144531 97.832031 C 502.109375 97.390625 503.160156 100.035156 501.753906 100.222656 C 495.890625 93.289062 491.054688 82.289062 486.8125 75.71875 C 486.992188 74.503906 488.007812 74.128906 488.605469 73.328125 " fill-opacity="1" fill-rule="nonzero"/><g clip-path="url(#e054c0ef6c)"><path fill="#1c1c1c" d="M 368.480469 302.21875 C 370.035156 311.222656 379.820312 311.996094 378.046875 324.328125 C 378.046875 327.515625 373.265625 325.921875 373.265625 329.113281 C 378.0625 353.421875 348.929688 365.636719 329.039062 353.613281 C 323.113281 366.164062 287.839844 368.347656 281.230469 354.808594 C 272.6875 360.152344 262.113281 361.667969 250.152344 362.578125 C 184.492188 367.550781 103.585938 364.710938 45.765625 359.589844 C 42.015625 359.097656 43.386719 363.164062 39.792969 361.382812 C 39.703125 353.261719 47.835938 348.792969 50.546875 341.660156 C 53.820312 333.039062 53.859375 323.695312 50.546875 313.574219 C 49.394531 314.335938 48.328125 315.242188 47.328125 316.25 C 46.949219 316.628906 46.582031 317.019531 46.222656 317.421875 C 46.097656 317.558594 45.980469 317.691406 45.863281 317.828125 C 45.742188 317.96875 45.625 318.105469 45.507812 318.246094 C 45.390625 318.382812 45.273438 318.523438 45.15625 318.664062 C 45.097656 318.734375 45.039062 318.804688 44.984375 318.875 C 44.808594 319.089844 44.636719 319.304688 44.46875 319.523438 C 44.125 319.957031 43.789062 320.398438 43.457031 320.84375 C 42.679688 321.890625 41.917969 322.957031 41.160156 324.019531 C 40.941406 324.324219 40.722656 324.625 40.503906 324.929688 C 40.070312 325.535156 39.632812 326.132812 39.191406 326.722656 C 35.449219 331.707031 32.515625 337.636719 29.035156 342.859375 C 22.042969 353.355469 12.417969 362.320312 6.921875 373.332031 C 13 384.847656 16.582031 401.914062 26.644531 410.386719 C 30.199219 413.382812 42.652344 417.003906 50.546875 417.558594 C 76.90625 419.414062 103.027344 419.390625 128.839844 419.351562 C 132.515625 419.34375 136.25 419.355469 140.050781 419.378906 C 140.761719 419.386719 141.472656 419.390625 142.183594 419.394531 C 143.972656 419.410156 145.777344 419.425781 147.597656 419.441406 C 148.324219 419.449219 149.054688 419.457031 149.785156 419.464844 C 150.519531 419.472656 151.253906 419.480469 151.992188 419.488281 C 152.730469 419.496094 153.46875 419.503906 154.210938 419.511719 C 154.214844 419.511719 154.214844 419.511719 154.214844 419.511719 C 156.445312 419.539062 158.699219 419.566406 160.980469 419.59375 C 161.359375 419.597656 161.742188 419.601562 162.125 419.605469 C 162.886719 419.617188 163.652344 419.625 164.421875 419.632812 C 165.578125 419.648438 166.738281 419.664062 167.90625 419.675781 C 169.074219 419.691406 170.25 419.703125 171.429688 419.71875 C 173.007812 419.734375 174.601562 419.753906 176.203125 419.769531 C 177.003906 419.78125 177.8125 419.789062 178.617188 419.796875 C 178.621094 419.796875 178.621094 419.796875 178.621094 419.796875 C 180.238281 419.8125 181.871094 419.828125 183.515625 419.84375 C 186.398438 419.871094 189.320312 419.890625 192.292969 419.910156 C 196.542969 419.933594 200.886719 419.949219 205.332031 419.949219 C 211.292969 419.949219 217.167969 419.859375 222.96875 419.703125 C 223.792969 419.679688 224.617188 419.65625 225.4375 419.632812 C 232.394531 419.421875 239.25 419.113281 246.042969 418.75 C 246.898438 418.703125 247.753906 418.65625 248.609375 418.609375 C 248.988281 418.585938 249.367188 418.566406 249.746094 418.542969 C 250.546875 418.5 251.347656 418.453125 252.144531 418.40625 C 253.742188 418.3125 255.335938 418.214844 256.929688 418.117188 C 258.191406 418.039062 259.449219 417.957031 260.710938 417.878906 C 262.09375 417.789062 263.476562 417.699219 264.855469 417.605469 C 265.949219 417.535156 267.042969 417.460938 268.132812 417.390625 C 268.5625 417.359375 268.992188 417.332031 269.421875 417.300781 C 271.472656 417.160156 273.527344 417.023438 275.574219 416.878906 C 278.0625 416.710938 280.542969 416.535156 283.023438 416.367188 C 318.027344 413.949219 358.925781 414.972656 376.25 396.640625 C 383.695312 388.765625 394.324219 369.089844 396.570312 357.199219 C 400.535156 336.242188 378.375 313.777344 373.265625 299.828125 C 371.65625 300.613281 370.089844 301.433594 368.480469 302.21875 Z M 563.90625 49.425781 C 565.378906 53.359375 569.351562 58.996094 565.097656 61.378906 C 560.886719 54.835938 558.3125 46.648438 556.136719 38.070312 C 551.03125 40.339844 546.3125 42.984375 542.390625 46.433594 C 545.398438 54.183594 547.820312 62.519531 552.546875 68.550781 C 550.8125 67.839844 551.527344 69.589844 551.382812 70.472656 C 551.375 70.519531 551.363281 70.5625 551.347656 70.601562 C 551.339844 70.644531 551.324219 70.683594 551.300781 70.71875 C 551.28125 70.753906 551.261719 70.785156 551.234375 70.8125 C 551.136719 70.917969 550.984375 70.964844 550.757812 70.9375 C 543.402344 66.542969 543.414062 54.777344 538.203125 48.230469 C 534.417969 49.421875 531.503906 51.492188 528.042969 53.007812 C 531.417969 63.902344 535.988281 69.921875 541.195312 78.710938 C 539.660156 78.765625 540.339844 81.039062 538.804688 81.097656 C 533.03125 73.523438 528.144531 65.058594 524.460938 55.402344 C 517.910156 57.214844 513.191406 60.863281 507.128906 63.171875 C 508.824219 67.640625 512.914062 72.148438 516.09375 76.914062 C 518.738281 80.875 524.433594 87.1875 520.277344 90.660156 C 514.117188 82.679688 509.699219 72.949219 502.945312 65.558594 C 492.359375 69.714844 484.097656 76.195312 474.261719 81.097656 C 478.242188 90.464844 483.515625 98.542969 488.605469 106.796875 C 486.683594 106.269531 487.785156 108.765625 486.214844 108.589844 C 479.863281 101.597656 475.605469 92.503906 471.269531 83.488281 C 466.542969 85.730469 462.246094 88.40625 458.722656 91.859375 C 462.46875 101.058594 468.433594 108.039062 473.0625 116.359375 C 470.253906 115.726562 474.050781 118.375 471.871094 118.75 C 464.089844 112.785156 460.933594 102.195312 455.140625 94.246094 C 450.863281 95.953125 448.003906 99.0625 443.785156 100.820312 C 447.480469 103.234375 450.050781 110.6875 453.941406 116.359375 C 456.5 120.082031 460.957031 122.316406 460.53125 126.410156 C 460.609375 125.296875 459.308594 127.648438 459.21875 128.21875 C 451.632812 121.324219 447.542969 110.941406 440.796875 103.210938 C 438.859375 106.054688 435.183594 107.164062 433.027344 109.785156 C 436.292969 123.777344 452.351562 129.804688 458.722656 142.652344 C 458.363281 144.085938 457.863281 145.378906 458.125 147.433594 C 501.527344 121.910156 544.554688 96.011719 585.421875 67.953125 C 598.878906 59.511719 596.050781 30.640625 578.84375 29.105469 C 570.976562 28.402344 564.890625 33.953125 558.523438 36.875 C 560.523438 39.949219 562.234375 44.992188 563.90625 49.425781 Z M 320.078125 244.847656 C 357.359375 219.355469 400.324219 189.984375 439.601562 163.570312 C 446.347656 159.027344 456.96875 152.308594 453.941406 143.25 C 450.933594 134.238281 431.535156 123.242188 428.84375 114.566406 C 413.6875 121.546875 399.746094 132.597656 384.621094 140.859375 C 355.113281 156.976562 325.765625 172.515625 300.355469 192.253906 C 287.378906 202.335938 272.964844 210.707031 262.703125 222.734375 C 268.714844 225.289062 272.523438 230.050781 274.65625 236.480469 C 287.675781 228.1875 314.441406 231.71875 320.078125 244.847656 Z M 54.730469 340.464844 C 66.285156 340.46875 73.292969 341.703125 81.027344 345.84375 C 85.785156 337.417969 90.238281 329.519531 99.550781 326.722656 C 113.007812 322.679688 127.835938 331.464844 138.398438 337.476562 C 140.269531 342.332031 150.144531 344.367188 146.765625 350.625 C 136.375 340.984375 117.730469 323.921875 98.953125 330.90625 C 90.144531 334.183594 87.257812 343.609375 81.628906 351.222656 C 75.785156 346.046875 64.695312 343.132812 53.539062 345.246094 L 53.535156 345.246094 C 53.449219 345.34375 53.359375 345.445312 53.269531 345.542969 C 53.085938 345.746094 52.894531 345.945312 52.699219 346.152344 C 52.550781 346.304688 52.402344 346.460938 52.25 346.621094 C 52.195312 346.671875 52.144531 346.722656 52.09375 346.777344 C 51.992188 346.882812 51.886719 346.988281 51.78125 347.09375 C 51.730469 347.148438 51.675781 347.199219 51.625 347.253906 C 51.515625 347.363281 51.410156 347.46875 51.304688 347.578125 C 51.199219 347.6875 51.089844 347.792969 50.984375 347.90625 C 50.875 348.011719 50.765625 348.125 50.660156 348.234375 C 50.441406 348.457031 50.226562 348.679688 50.011719 348.90625 C 49.847656 349.074219 49.6875 349.246094 49.53125 349.417969 C 49.265625 349.703125 49.007812 349.992188 48.753906 350.285156 C 48.652344 350.402344 48.550781 350.519531 48.453125 350.636719 C 48.109375 351.050781 47.785156 351.46875 47.488281 351.894531 C 47.402344 352.015625 47.316406 352.136719 47.238281 352.257812 C 46.316406 353.660156 45.714844 355.109375 45.765625 356.601562 C 68.425781 359.636719 94.261719 356.699219 117.484375 358.992188 C 160.824219 363.277344 207.789062 360.703125 248.363281 358.390625 C 257.390625 357.882812 270.300781 356.578125 275.253906 353.613281 C 277.726562 352.136719 278.898438 347.792969 282.425781 347.039062 C 283.402344 349.964844 283.960938 352.9375 286.011719 356.003906 C 300.476562 362.109375 320.988281 361.554688 328.441406 348.234375 C 346.359375 361.425781 377.867188 350.945312 369.078125 324.925781 C 369.863281 322.71875 374.421875 324.289062 374.457031 321.34375 C 374.488281 315.023438 368.242188 312.046875 365.496094 307 C 364.285156 304.78125 364.320312 301.382812 362.507812 299.230469 C 358.5625 294.546875 348.871094 294.0625 346.371094 287.875 C 345.191406 284.960938 346.269531 281.667969 345.171875 278.910156 C 338.066406 280.5625 331.128906 268.285156 339.199219 267.558594 C 338.980469 269.789062 340.097656 272.601562 341.589844 274.726562 C 344.976562 275.265625 347.019531 273.539062 349.359375 274.726562 C 349.285156 278.988281 349.273438 283.179688 349.953125 286.679688 C 355.386719 291.210938 362.933594 293.625 367.886719 298.632812 C 370.421875 297.789062 371.746094 295.726562 373.863281 294.449219 C 376.269531 279.828125 372.136719 265.980469 369.078125 252.613281 C 366.660156 242.046875 364.71875 231.355469 359.515625 223.929688 C 359.113281 224.128906 358.707031 224.332031 358.300781 224.539062 C 356.875 225.261719 355.433594 226.03125 353.980469 226.832031 C 353.359375 227.175781 352.734375 227.527344 352.109375 227.886719 C 351.484375 228.242188 350.855469 228.605469 350.226562 228.976562 C 349.390625 229.46875 348.550781 229.96875 347.710938 230.484375 C 347.078125 230.867188 346.449219 231.257812 345.816406 231.65625 C 336.988281 237.191406 328.171875 243.734375 320.671875 250.226562 C 320.371094 254.046875 323.808594 258.488281 318.878906 259.1875 C 316.304688 253.597656 318.367188 247.960938 315.292969 243.648438 C 311.042969 237.6875 294.289062 233.992188 284.816406 236.480469 C 279.890625 237.773438 276.835938 242.628906 272.863281 242.457031 C 272.261719 240.320312 271.527344 238.316406 270.632812 236.46875 C 270.453125 236.101562 270.269531 235.738281 270.078125 235.382812 C 269.980469 235.203125 269.882812 235.027344 269.785156 234.855469 C 269.585938 234.503906 269.378906 234.160156 269.167969 233.824219 C 269.0625 233.660156 268.953125 233.492188 268.84375 233.328125 C 268.734375 233.164062 268.625 233.003906 268.511719 232.839844 C 268.394531 232.679688 268.28125 232.519531 268.164062 232.363281 C 268.046875 232.207031 267.929688 232.050781 267.808594 231.898438 C 267.6875 231.746094 267.566406 231.59375 267.441406 231.445312 C 267.195312 231.144531 266.9375 230.855469 266.671875 230.570312 C 266.542969 230.425781 266.40625 230.285156 266.269531 230.148438 C 266.136719 230.011719 266 229.875 265.859375 229.742188 C 265.71875 229.605469 265.578125 229.472656 265.433594 229.34375 C 265.289062 229.214844 265.144531 229.085938 264.996094 228.960938 C 264.847656 228.835938 264.699219 228.710938 264.546875 228.585938 L 264.542969 228.585938 C 264.390625 228.464844 264.238281 228.34375 264.082031 228.230469 C 263.925781 228.109375 263.769531 227.996094 263.609375 227.882812 C 263.449219 227.769531 263.285156 227.65625 263.121094 227.550781 C 262.953125 227.4375 262.789062 227.332031 262.621094 227.226562 C 262.449219 227.125 262.277344 227.019531 262.105469 226.917969 C 255.839844 227.394531 251.007812 227.628906 244.777344 226.320312 C 244.707031 221.667969 250.570312 222.949219 254.933594 222.734375 C 257.703125 220.09375 261.5 217.304688 265.09375 214.367188 C 268.140625 211.882812 273.980469 207.960938 273.460938 206.003906 C 228.535156 210.617188 168.011719 202.355469 124.054688 208.394531 C 116.628906 209.414062 108.730469 209.804688 101.347656 210.78125 C 94.917969 211.632812 77.773438 217.003906 74.453125 219.746094 C 64.277344 228.152344 60.847656 240.015625 54.132812 252.613281 C 50.609375 259.230469 42.113281 268.09375 42.78125 275.921875 C 43.90625 289.128906 68.460938 290.65625 63.101562 273.53125 C 59.929688 273.078125 57.976562 277.007812 55.925781 274.128906 C 56.785156 271.136719 59.648438 268.992188 62.503906 269.351562 C 72.8125 270.652344 66.210938 293.324219 61.902344 298.632812 C 60.003906 300.976562 57.390625 301.914062 55.925781 304.011719 C 50.59375 311.671875 57.417969 319.042969 57.121094 328.511719 C 56.976562 333.195312 55.121094 336.027344 54.730469 340.464844 Z M 595.574219 33.886719 C 602.851562 45.769531 599.78125 61.988281 591.394531 70.34375 C 587.339844 74.382812 580.738281 77.066406 575.257812 81.097656 C 549.371094 100.140625 521.210938 116.109375 492.789062 133.09375 C 487.382812 136.320312 482.109375 140.519531 476.652344 143.847656 C 470.96875 147.316406 464.71875 149.894531 459.917969 153.414062 C 455.082031 156.957031 452.140625 162.347656 447.371094 165.960938 C 440.726562 170.988281 432.835938 174.453125 425.851562 179.109375 C 405.746094 192.519531 385.074219 207.230469 364.894531 220.941406 C 369.015625 230.0625 372.152344 240.488281 374.457031 251.417969 C 377.492188 265.78125 382.585938 280.660156 378.640625 296.839844 C 387.042969 315.300781 400.664062 329.792969 402.546875 348.832031 C 402.867188 352.070312 402.695312 356 401.949219 359.589844 C 399.152344 373.058594 390.03125 389.359375 382.226562 399.03125 C 364.597656 420.886719 323.847656 419.125 283.621094 421.742188 C 274.316406 422.347656 265.460938 424.785156 257.324219 425.328125 C 222.414062 427.671875 180.925781 425.324219 143.777344 425.328125 C 125.792969 425.328125 105.898438 425.558594 87.003906 424.730469 C 64.332031 423.734375 39.082031 424.96875 26.046875 416.367188 C 16.664062 410.167969 10.5 397.5 5.726562 385.285156 C 5.042969 383.535156 5.03125 380.746094 3.933594 378.710938 C 2.234375 375.5625 0.53125 376.140625 0.351562 373.929688 C -0.125 368.214844 9.066406 360.148438 12.898438 355.40625 C 29.683594 334.636719 41.671875 309.535156 58.914062 291.464844 C 44.921875 293.582031 37.464844 284.777344 37.402344 274.128906 C 37.347656 265.261719 43.984375 258.597656 47.5625 252.015625 C 51.277344 245.171875 54.515625 235.382812 57.71875 230.503906 C 63.910156 221.085938 72.5625 213.070312 84.613281 208.988281 C 94.195312 205.742188 104.066406 205.121094 116.886719 203.015625 C 161.925781 195.617188 220.257812 203.675781 266.886719 200.621094 C 271.25 200.335938 277.089844 200.078125 281.230469 198.828125 C 286.316406 197.296875 293.175781 190.816406 298.5625 186.878906 C 331.882812 162.507812 371.585938 142.382812 406.734375 120.542969 C 412.5625 116.917969 419.996094 114.378906 425.257812 110.382812 C 428.027344 108.277344 429.582031 104.855469 432.425781 102.613281 C 440.277344 96.425781 449.289062 90.953125 458.125 84.683594 C 480.472656 68.828125 508.195312 57.433594 534.023438 43.449219 C 545.734375 37.105469 563.160156 24.945312 575.257812 23.726562 C 583.476562 22.898438 591.417969 27.09375 595.574219 33.886719 " fill-opacity="1" fill-rule="nonzero"/></g><path fill="#6237c5" d="M 486.8125 75.71875 C 491.058594 82.289062 495.890625 93.289062 501.753906 100.222656 C 503.160156 100.035156 502.105469 97.390625 504.144531 97.832031 C 498.363281 90.261719 494.992188 80.292969 488.605469 73.328125 C 488.003906 74.128906 486.992188 74.503906 486.8125 75.71875 Z M 558.523438 36.875 C 564.886719 33.949219 570.976562 28.40625 578.847656 29.105469 C 596.050781 30.636719 598.878906 59.511719 585.421875 67.953125 C 544.550781 96.011719 501.527344 121.910156 458.125 147.433594 C 457.863281 145.378906 458.363281 144.085938 458.726562 142.652344 C 452.355469 129.804688 436.292969 123.777344 433.023438 109.785156 C 435.1875 107.164062 438.855469 106.054688 440.792969 103.210938 C 447.542969 110.941406 451.632812 121.324219 459.21875 128.214844 C 459.199219 128.328125 459.226562 128.371094 459.320312 128.3125 C 459.285156 128.28125 459.25 128.25 459.21875 128.214844 C 459.308594 127.648438 460.609375 125.292969 460.527344 126.410156 C 460.957031 122.316406 456.5 120.082031 453.945312 116.359375 C 450.050781 110.6875 447.480469 103.234375 443.785156 100.820312 C 448.003906 99.0625 450.863281 95.949219 455.140625 94.246094 C 460.933594 102.195312 464.089844 112.785156 471.871094 118.75 C 474.046875 118.375 470.253906 115.726562 473.066406 116.359375 C 468.4375 108.039062 462.46875 101.058594 458.726562 91.855469 C 462.246094 88.40625 466.542969 85.730469 471.273438 83.488281 C 475.605469 92.503906 479.859375 101.597656 486.214844 108.589844 C 487.785156 108.765625 486.683594 106.269531 488.605469 106.796875 C 483.515625 98.539062 478.242188 90.464844 474.261719 81.097656 C 484.097656 76.195312 492.359375 69.714844 502.949219 65.558594 C 509.699219 72.949219 514.113281 82.679688 520.277344 90.660156 C 524.433594 87.183594 518.738281 80.871094 516.09375 76.914062 C 512.917969 72.148438 508.828125 67.640625 507.128906 63.167969 C 513.191406 60.863281 517.910156 57.214844 524.460938 55.402344 C 528.144531 65.058594 533.03125 73.523438 538.804688 81.097656 C 540.339844 81.039062 539.660156 78.765625 541.195312 78.707031 C 535.988281 69.921875 531.417969 63.902344 528.046875 53.011719 C 531.503906 51.492188 534.417969 49.417969 538.203125 48.230469 C 543.414062 54.777344 543.402344 66.539062 550.757812 70.9375 C 550.984375 70.96875 551.140625 70.914062 551.234375 70.8125 C 551.261719 70.785156 551.28125 70.753906 551.300781 70.71875 C 551.324219 70.683594 551.339844 70.644531 551.347656 70.601562 C 551.363281 70.5625 551.375 70.519531 551.382812 70.472656 C 551.527344 69.585938 550.8125 67.839844 552.550781 68.550781 C 547.820312 62.519531 545.398438 54.183594 542.394531 46.4375 C 546.3125 42.984375 551.035156 40.339844 556.136719 38.070312 C 558.316406 46.648438 560.886719 54.835938 565.097656 61.378906 C 569.351562 58.996094 565.378906 53.355469 563.902344 49.425781 C 562.238281 44.996094 560.523438 39.949219 558.523438 36.875 Z M 578.847656 33.886719 C 578.136719 33.195312 576.734375 33.210938 575.261719 33.289062 C 569.328125 41.800781 573.316406 57.328125 583.027344 60.183594 C 583.5625 59.117188 584.695312 58.660156 584.226562 56.59375 C 576.882812 53.761719 573.714844 40.652344 578.847656 33.886719 " fill-opacity="1" fill-rule="nonzero"/><path fill="#1c1c1c" d="M 459.21875 128.21875 C 459.25 128.25 459.285156 128.28125 459.320312 128.3125 C 459.226562 128.375 459.199219 128.328125 459.21875 128.21875 " fill-opacity="1" fill-rule="nonzero"/><path fill="#dddddd" d="M 354.738281 176.121094 C 353.230469 178.0625 354.648438 181.078125 357.722656 180.304688 C 357.980469 177.65625 356.730469 176.519531 354.738281 176.121094 Z M 346.371094 183.886719 C 347.738281 184.269531 349.972656 185.074219 351.152344 183.886719 C 351.289062 181.605469 347.863281 180.898438 346.371094 182.097656 Z M 320.078125 244.847656 C 314.445312 231.71875 287.675781 228.1875 274.65625 236.480469 C 272.523438 230.046875 268.714844 225.289062 262.703125 222.734375 C 272.964844 210.707031 287.378906 202.335938 300.351562 192.253906 C 325.769531 172.519531 355.113281 156.976562 384.621094 140.859375 C 399.746094 132.59375 413.683594 121.546875 428.839844 114.566406 C 431.535156 123.242188 450.933594 134.238281 453.941406 143.25 C 456.96875 152.308594 446.347656 159.027344 439.601562 163.570312 C 400.324219 189.984375 357.359375 219.355469 320.078125 244.847656 Z M 392.984375 159.984375 L 392.984375 156.398438 C 390.507812 155.921875 389.484375 158.699219 390.59375 159.984375 Z M 382.828125 159.386719 L 381.03125 159.386719 C 380.292969 161.039062 379.285156 162.421875 379.242188 164.765625 L 382.226562 164.765625 C 383.230469 163.777344 382.703125 161.257812 382.828125 159.386719 Z M 305.730469 213.769531 C 306.296875 212.394531 305.769531 211.84375 306.328125 209.585938 C 305.566406 209.554688 305.503906 208.820312 304.539062 208.988281 C 303.695312 210.140625 302.957031 211.394531 302.746094 213.171875 C 303.4375 213.675781 304.34375 213.960938 305.730469 213.769531 Z M 297.367188 217.355469 C 299.421875 216.621094 298.242188 212.652344 299.15625 210.78125 C 297.972656 210.773438 298.398438 209.152344 296.769531 209.585938 C 296.203125 211.261719 293.824219 217.070312 297.367188 217.355469 " fill-opacity="1" fill-rule="nonzero"/><path fill="#1c1c1c" d="M 392.980469 156.398438 L 392.980469 159.984375 L 390.59375 159.984375 C 389.480469 158.699219 390.503906 155.921875 392.980469 156.398438 " fill-opacity="1" fill-rule="nonzero"/><path fill="#dcebf9" d="M 321.269531 400.824219 C 323.183594 401.777344 324.65625 400.75 324.855469 398.433594 C 323.667969 398.425781 324.09375 396.804688 322.464844 397.238281 C 321.933594 398.300781 320.796875 398.757812 321.269531 400.824219 Z M 315.890625 373.332031 C 338.328125 373.382812 375.890625 382.546875 373.859375 357.796875 C 371.625 357.882812 371.386719 362.105469 370.277344 363.773438 C 364.011719 373.167969 341.71875 370.648438 325.453125 369.746094 C 310.050781 368.898438 297.101562 371.109375 284.214844 371.542969 C 268.03125 372.085938 251.402344 372.644531 235.210938 373.332031 C 187.078125 375.382812 116.035156 381.761719 62.503906 374.53125 C 56.617188 373.734375 50.558594 374.414062 45.765625 373.332031 C 40.738281 372.199219 31.890625 367.59375 30.828125 364.371094 C 29.800781 361.253906 34.660156 356.707031 31.425781 355.40625 C 20.769531 363.511719 31.984375 372.898438 40.390625 375.726562 C 48.914062 378.59375 61.203125 378.554688 72.660156 379.910156 C 84.222656 381.28125 96.570312 381.105469 109.113281 381.105469 C 132.070312 381.105469 155.492188 382.703125 178.441406 380.507812 C 211.695312 377.324219 243.84375 376.199219 281.230469 375.726562 C 293.214844 375.574219 304.777344 373.308594 315.890625 373.332031 Z M 309.914062 401.421875 C 313.546875 401.871094 313.847656 398.980469 314.695312 396.640625 C 313.175781 395.945312 309.414062 398.121094 309.914062 401.421875 Z M 281.230469 354.808594 C 287.839844 368.347656 323.109375 366.167969 329.039062 353.617188 C 348.929688 365.636719 378.0625 353.421875 373.265625 329.113281 C 373.265625 325.921875 378.042969 327.515625 378.042969 324.328125 C 379.820312 311.996094 370.03125 311.222656 368.480469 302.21875 C 370.085938 301.433594 371.65625 300.613281 373.265625 299.828125 C 378.375 313.777344 400.535156 336.242188 396.570312 357.199219 C 394.320312 369.089844 383.699219 388.765625 376.25 396.640625 C 358.921875 414.972656 318.027344 413.949219 283.023438 416.367188 C 280.539062 416.539062 278.0625 416.710938 275.574219 416.878906 C 273.527344 417.023438 271.476562 417.160156 269.421875 417.300781 C 268.992188 417.332031 268.5625 417.359375 268.132812 417.390625 C 267.042969 417.460938 265.949219 417.535156 264.855469 417.605469 C 263.476562 417.699219 262.09375 417.789062 260.710938 417.878906 C 259.449219 417.957031 258.191406 418.039062 256.929688 418.117188 C 255.335938 418.214844 253.742188 418.3125 252.144531 418.40625 C 251.34375 418.453125 250.542969 418.5 249.746094 418.542969 C 249.367188 418.566406 248.988281 418.585938 248.609375 418.609375 C 247.753906 418.65625 246.898438 418.703125 246.042969 418.75 C 239.25 419.113281 232.394531 419.421875 225.4375 419.632812 C 224.613281 419.65625 223.792969 419.679688 222.964844 419.703125 C 217.167969 419.859375 211.292969 419.945312 205.332031 419.945312 C 200.882812 419.945312 196.539062 419.933594 192.292969 419.910156 C 189.320312 419.890625 186.394531 419.867188 183.515625 419.84375 C 183.515625 419.84375 183.515625 419.84375 183.511719 419.84375 C 181.867188 419.828125 180.238281 419.8125 178.621094 419.796875 C 178.621094 419.796875 178.621094 419.796875 178.617188 419.796875 C 177.808594 419.789062 177.003906 419.78125 176.203125 419.769531 C 174.597656 419.753906 173.007812 419.734375 171.429688 419.71875 C 170.246094 419.703125 169.074219 419.691406 167.90625 419.675781 C 166.738281 419.660156 165.578125 419.648438 164.421875 419.632812 C 163.652344 419.625 162.886719 419.613281 162.125 419.605469 C 161.742188 419.601562 161.359375 419.597656 160.980469 419.59375 C 158.699219 419.566406 156.445312 419.539062 154.214844 419.511719 C 154.214844 419.511719 154.214844 419.511719 154.210938 419.511719 C 153.46875 419.503906 152.730469 419.496094 151.992188 419.488281 C 151.253906 419.480469 150.519531 419.472656 149.785156 419.464844 C 149.054688 419.457031 148.324219 419.449219 147.597656 419.441406 C 145.777344 419.425781 143.972656 419.410156 142.183594 419.394531 C 141.472656 419.390625 140.761719 419.386719 140.050781 419.378906 C 136.25 419.355469 132.515625 419.34375 128.839844 419.351562 C 103.027344 419.390625 76.90625 419.414062 50.546875 417.558594 C 42.652344 417.003906 30.199219 413.382812 26.644531 410.386719 C 16.582031 401.914062 13 384.847656 6.921875 373.332031 C 12.417969 362.320312 22.042969 353.355469 29.035156 342.859375 C 32.515625 337.636719 35.449219 331.707031 39.191406 326.722656 C 39.632812 326.132812 40.070312 325.535156 40.503906 324.929688 C 40.722656 324.628906 40.941406 324.324219 41.160156 324.019531 C 41.917969 322.957031 42.675781 321.890625 43.457031 320.84375 C 43.789062 320.398438 44.128906 319.957031 44.46875 319.523438 C 44.636719 319.304688 44.808594 319.089844 44.984375 318.875 C 45.039062 318.808594 45.097656 318.734375 45.15625 318.664062 C 45.273438 318.523438 45.390625 318.382812 45.507812 318.246094 C 45.625 318.105469 45.742188 317.96875 45.863281 317.832031 C 45.980469 317.691406 46.097656 317.558594 46.222656 317.421875 C 46.582031 317.019531 46.949219 316.628906 47.328125 316.25 C 48.328125 315.246094 49.394531 314.335938 50.546875 313.574219 C 53.859375 323.695312 53.820312 333.039062 50.546875 341.660156 C 47.835938 348.796875 39.703125 353.261719 39.792969 361.382812 C 43.386719 363.164062 42.015625 359.097656 45.765625 359.589844 C 103.585938 364.710938 184.492188 367.550781 250.152344 362.578125 C 262.109375 361.667969 272.6875 360.152344 281.230469 354.808594 Z M 90.589844 398.433594 C 90.457031 398.902344 90.089844 399.132812 89.394531 399.03125 C 90.601562 403.003906 92.269531 406.515625 95.96875 408 C 95.671875 404.75 93.441406 400.820312 90.589844 398.433594 Z M 80.429688 405.605469 C 80.976562 406.65625 81.542969 407.683594 83.421875 407.402344 C 85.136719 405.550781 83.980469 403.882812 82.222656 402.617188 C 82.039062 404.027344 80.148438 403.730469 80.429688 405.605469 " fill-opacity="1" fill-rule="nonzero"/><path fill="#1c1c1c" d="M 381.03125 159.386719 L 382.828125 159.386719 C 382.703125 161.257812 383.230469 163.777344 382.226562 164.765625 L 379.238281 164.765625 C 379.285156 162.421875 380.289062 161.039062 381.03125 159.386719 " fill-opacity="1" fill-rule="nonzero"/><path fill="#1c1c1c" d="M 357.722656 180.304688 C 354.648438 181.078125 353.230469 178.0625 354.734375 176.121094 C 356.726562 176.523438 357.976562 177.65625 357.722656 180.304688 " fill-opacity="1" fill-rule="nonzero"/><path fill="#1c1c1c" d="M 346.371094 182.097656 C 347.863281 180.898438 351.289062 181.605469 351.152344 183.890625 C 349.976562 185.074219 347.738281 184.269531 346.371094 183.890625 L 346.371094 182.097656 " fill-opacity="1" fill-rule="nonzero"/><path fill="#1c1c1c" d="M 324.855469 398.433594 C 324.65625 400.75 323.183594 401.777344 321.273438 400.824219 C 320.796875 398.757812 321.933594 398.300781 322.464844 397.238281 C 324.09375 396.804688 323.671875 398.425781 324.855469 398.433594 " fill-opacity="1" fill-rule="nonzero"/><path fill="#1c1c1c" d="M 321.269531 318.355469 C 319.523438 318.890625 319.4375 318.890625 317.683594 318.355469 C 317.425781 314.910156 317.746094 312.042969 321.269531 312.378906 C 321.050781 315.136719 320.539062 315.816406 321.269531 318.355469 " fill-opacity="1" fill-rule="nonzero"/><path fill="#1c1c1c" d="M 314.695312 396.640625 C 313.847656 398.980469 313.546875 401.871094 309.914062 401.421875 C 309.417969 398.121094 313.175781 395.945312 314.695312 396.640625 " fill-opacity="1" fill-rule="nonzero"/><path fill="#1c1c1c" d="M 314.695312 310.585938 C 312.605469 313.476562 315.054688 320.902344 309.914062 320.742188 C 310.351562 317 310.421875 312.882812 311.710938 309.988281 C 313.09375 309.800781 314.003906 310.085938 314.695312 310.585938 " fill-opacity="1" fill-rule="nonzero"/><path fill="#1c1c1c" d="M 304.539062 208.988281 C 305.5 208.820312 305.566406 209.554688 306.328125 209.589844 C 305.769531 211.84375 306.296875 212.394531 305.730469 213.769531 C 304.34375 213.960938 303.4375 213.675781 302.742188 213.175781 C 302.957031 211.394531 303.695312 210.140625 304.539062 208.988281 " fill-opacity="1" fill-rule="nonzero"/><path fill="#1c1c1c" d="M 299.15625 210.78125 C 298.238281 212.652344 299.417969 216.621094 297.367188 217.355469 C 293.820312 217.070312 296.199219 211.261719 296.769531 209.589844 C 298.398438 209.152344 297.96875 210.773438 299.15625 210.78125 " fill-opacity="1" fill-rule="nonzero"/><path fill="#1c1c1c" d="M 281.230469 307.597656 C 281.402344 309.992188 281.640625 312.199219 278.242188 312.976562 C 276.378906 310.808594 279.566406 309.882812 279.441406 307.597656 L 281.230469 307.597656 " fill-opacity="1" fill-rule="nonzero"/><path fill="#1c1c1c" d="M 274.660156 302.21875 C 272.929688 304.402344 272.136719 310.28125 268.082031 308.191406 C 269.371094 305.570312 271.390625 300.921875 274.660156 302.21875 " fill-opacity="1" fill-rule="nonzero"/><path fill="#1c1c1c" d="M 269.417969 417.300781 C 271.476562 417.160156 273.527344 417.023438 275.574219 416.878906 C 273.527344 417.023438 271.472656 417.160156 269.417969 417.300781 " fill-opacity="1" fill-rule="nonzero"/><path fill="#1c1c1c" d="M 264.859375 417.605469 C 265.953125 417.535156 267.042969 417.460938 268.132812 417.390625 C 267.042969 417.460938 265.953125 417.535156 264.859375 417.605469 " fill-opacity="1" fill-rule="nonzero"/><path fill="#1c1c1c" d="M 256.929688 418.117188 C 258.191406 418.039062 259.453125 417.957031 260.710938 417.878906 C 259.453125 417.957031 258.191406 418.039062 256.929688 418.117188 " fill-opacity="1" fill-rule="nonzero"/><path fill="#1c1c1c" d="M 249.746094 418.542969 C 250.546875 418.5 251.347656 418.453125 252.144531 418.40625 C 251.347656 418.453125 250.546875 418.5 249.746094 418.542969 " fill-opacity="1" fill-rule="nonzero"/><path fill="#1c1c1c" d="M 82.222656 266.957031 C 82.214844 267.042969 82.210938 267.136719 82.203125 267.226562 C 82.195312 267.320312 82.1875 267.417969 82.179688 267.515625 C 82.167969 267.617188 82.160156 267.71875 82.148438 267.824219 C 82.136719 267.925781 82.125 268.035156 82.113281 268.144531 C 82.085938 268.363281 82.054688 268.59375 82.023438 268.832031 C 82.003906 268.953125 81.988281 269.074219 81.96875 269.199219 C 81.941406 269.382812 81.914062 269.574219 81.886719 269.769531 C 81.875 269.835938 81.863281 269.902344 81.855469 269.96875 C 81.78125 270.433594 81.707031 270.921875 81.625 271.429688 C 80.917969 275.921875 80.003906 281.929688 81.324219 285.976562 C 81.359375 286.089844 81.398438 286.203125 81.441406 286.3125 C 81.441406 286.3125 81.441406 286.3125 81.441406 286.316406 C 81.476562 286.410156 81.511719 286.507812 81.550781 286.597656 C 81.5625 286.628906 81.578125 286.664062 81.589844 286.695312 C 81.628906 286.785156 81.667969 286.875 81.710938 286.964844 C 81.785156 287.121094 81.863281 287.277344 81.945312 287.425781 C 82.21875 287.921875 82.546875 288.371094 82.929688 288.757812 C 83.660156 289.496094 84.605469 290.019531 85.808594 290.265625 C 94.238281 291.976562 99.386719 286.371094 107.320312 288.472656 C 116.554688 290.921875 119.746094 299.414062 123.460938 307.597656 C 125.785156 312.726562 135.859375 322.480469 143.179688 312.976562 C 147.136719 307.839844 144.886719 296.617188 147.960938 292.0625 C 152.660156 285.089844 162.65625 288.925781 171.269531 289.671875 C 186.53125 290.980469 202.515625 289.257812 219.675781 286.082031 C 222.101562 285.324219 221.011719 281.042969 223.261719 280.109375 C 227.78125 278.417969 236.140625 277.867188 236.410156 283.691406 C 233.851562 284.371094 229.546875 282.054688 225.652344 283.691406 C 223.058594 294.757812 200.570312 293.507812 189.195312 293.847656 C 184.273438 294 179.230469 293.742188 173.660156 293.25 C 166.660156 292.640625 157.167969 289.234375 152.144531 293.25 C 146.980469 297.386719 150.796875 307.804688 146.167969 315.367188 C 143.351562 319.96875 132.160156 322.570312 125.851562 318.355469 C 117.933594 313.066406 119.183594 295.992188 107.320312 292.660156 C 99.285156 290.394531 87.246094 297.75 81.027344 292.0625 C 75.535156 287.027344 75.738281 270.085938 82.222656 266.957031 " fill-opacity="1" fill-rule="nonzero"/><path fill="#1c1c1c" d="M 225.054688 334.492188 C 226.140625 335.085938 227.167969 335.738281 227.996094 336.59375 C 228.324219 336.933594 228.625 337.304688 228.882812 337.71875 C 229.011719 337.929688 229.128906 338.144531 229.238281 338.375 C 229.273438 338.449219 229.308594 338.527344 229.34375 338.605469 C 229.410156 338.765625 229.46875 338.925781 229.527344 339.09375 C 229.664062 339.515625 229.769531 339.972656 229.835938 340.464844 C 226.40625 340.308594 224.789062 338.34375 225.054688 334.492188 " fill-opacity="1" fill-rule="nonzero"/><path fill="#1c1c1c" d="M 222.96875 419.703125 C 223.792969 419.679688 224.617188 419.65625 225.4375 419.632812 C 224.617188 419.65625 223.792969 419.679688 222.96875 419.703125 " fill-opacity="1" fill-rule="nonzero"/><path fill="#1c1c1c" d="M 222.96875 419.703125 C 217.167969 419.859375 211.296875 419.949219 205.332031 419.949219 C 200.886719 419.949219 196.542969 419.933594 192.292969 419.910156 C 196.539062 419.933594 200.882812 419.945312 205.332031 419.945312 C 211.296875 419.945312 217.167969 419.859375 222.96875 419.703125 " fill-opacity="1" fill-rule="nonzero"/><path fill="#1c1c1c" d="M 183.515625 419.84375 C 186.394531 419.867188 189.320312 419.890625 192.292969 419.910156 C 189.320312 419.890625 186.398438 419.871094 183.515625 419.84375 " fill-opacity="1" fill-rule="nonzero"/><path fill="#1c1c1c" d="M 178.621094 419.796875 C 180.238281 419.8125 181.871094 419.828125 183.515625 419.84375 C 181.871094 419.828125 180.238281 419.8125 178.621094 419.796875 " fill-opacity="1" fill-rule="nonzero"/><path fill="#1c1c1c" d="M 176.203125 419.769531 C 177.003906 419.78125 177.8125 419.789062 178.617188 419.796875 C 177.8125 419.789062 177.003906 419.78125 176.203125 419.769531 " fill-opacity="1" fill-rule="nonzero"/><path fill="#1c1c1c" d="M 167.910156 419.675781 C 169.074219 419.691406 170.25 419.703125 171.429688 419.71875 C 170.25 419.703125 169.074219 419.691406 167.910156 419.675781 " fill-opacity="1" fill-rule="nonzero"/><path fill="#1c1c1c" d="M 164.421875 419.632812 C 165.578125 419.648438 166.738281 419.660156 167.90625 419.675781 C 166.738281 419.664062 165.578125 419.648438 164.421875 419.632812 " fill-opacity="1" fill-rule="nonzero"/><path fill="#1c1c1c" d="M 162.125 419.605469 C 162.886719 419.613281 163.652344 419.625 164.421875 419.632812 C 163.652344 419.625 162.886719 419.617188 162.125 419.605469 " fill-opacity="1" fill-rule="nonzero"/><path fill="#1c1c1c" d="M 154.214844 419.511719 C 156.445312 419.539062 158.699219 419.566406 160.980469 419.59375 C 158.699219 419.566406 156.445312 419.539062 154.214844 419.511719 " fill-opacity="1" fill-rule="nonzero"/><path fill="#1c1c1c" d="M 151.996094 419.488281 C 152.730469 419.496094 153.46875 419.503906 154.210938 419.511719 C 153.46875 419.503906 152.730469 419.496094 151.996094 419.488281 " fill-opacity="1" fill-rule="nonzero"/><path fill="#1c1c1c" d="M 147.597656 419.441406 C 148.324219 419.449219 149.054688 419.457031 149.785156 419.464844 C 149.054688 419.457031 148.324219 419.449219 147.597656 419.441406 " fill-opacity="1" fill-rule="nonzero"/><path fill="#1c1c1c" d="M 140.050781 419.378906 C 140.761719 419.386719 141.472656 419.390625 142.183594 419.394531 C 141.472656 419.390625 140.761719 419.386719 140.050781 419.378906 " fill-opacity="1" fill-rule="nonzero"/><path fill="#1c1c1c" d="M 90.589844 398.433594 C 93.441406 400.820312 95.671875 404.75 95.96875 408 C 92.269531 406.515625 90.601562 403.003906 89.394531 399.03125 C 90.089844 399.132812 90.457031 398.902344 90.589844 398.433594 " fill-opacity="1" fill-rule="nonzero"/><path fill="#1c1c1c" d="M 83.421875 407.402344 C 81.542969 407.683594 80.976562 406.65625 80.429688 405.605469 C 80.148438 403.730469 82.039062 404.027344 82.222656 402.617188 C 83.980469 403.882812 85.136719 405.550781 83.421875 407.402344 " fill-opacity="1" fill-rule="nonzero"/><path fill="#1c1c1c" d="M 82.203125 267.226562 C 82.195312 267.320312 82.1875 267.417969 82.179688 267.515625 C 82.1875 267.417969 82.195312 267.320312 82.203125 267.226562 " fill-opacity="1" fill-rule="nonzero"/><path fill="#1c1c1c" d="M 82.148438 267.824219 C 82.136719 267.925781 82.125 268.035156 82.113281 268.144531 C 82.125 268.035156 82.136719 267.925781 82.148438 267.824219 " fill-opacity="1" fill-rule="nonzero"/><path fill="#1c1c1c" d="M 82.113281 268.144531 C 82.085938 268.363281 82.054688 268.59375 82.023438 268.832031 C 82.054688 268.59375 82.085938 268.363281 82.113281 268.144531 " fill-opacity="1" fill-rule="nonzero"/><path fill="#1c1c1c" d="M 81.945312 287.425781 C 82.21875 287.921875 82.546875 288.367188 82.929688 288.757812 C 82.546875 288.371094 82.21875 287.921875 81.945312 287.425781 " fill-opacity="1" fill-rule="nonzero"/><path fill="#1c1c1c" d="M 81.96875 269.199219 C 81.941406 269.382812 81.914062 269.574219 81.886719 269.769531 C 81.914062 269.574219 81.941406 269.382812 81.96875 269.199219 " fill-opacity="1" fill-rule="nonzero"/><path fill="#1c1c1c" d="M 81.855469 269.96875 C 81.785156 270.433594 81.707031 270.921875 81.625 271.429688 C 81.707031 270.921875 81.78125 270.433594 81.855469 269.96875 " fill-opacity="1" fill-rule="nonzero"/><path fill="#1c1c1c" d="M 81.589844 286.695312 C 81.628906 286.785156 81.671875 286.875 81.710938 286.964844 C 81.667969 286.875 81.628906 286.785156 81.589844 286.695312 " fill-opacity="1" fill-rule="nonzero"/><path fill="#1c1c1c" d="M 81.441406 286.316406 C 81.476562 286.410156 81.515625 286.503906 81.550781 286.597656 C 81.511719 286.507812 81.476562 286.410156 81.441406 286.316406 " fill-opacity="1" fill-rule="nonzero"/><path fill="#1c1c1c" d="M 81.324219 285.976562 C 81.363281 286.089844 81.398438 286.203125 81.441406 286.3125 C 81.398438 286.203125 81.359375 286.089844 81.324219 285.976562 " fill-opacity="1" fill-rule="nonzero"/><path fill="#1c1c1c" d="M 81.625 271.429688 C 80.917969 275.921875 80.007812 281.929688 81.324219 285.976562 C 80.003906 281.929688 80.917969 275.921875 81.625 271.429688 " fill-opacity="1" fill-rule="nonzero"/><path fill="#fff35c" d="M 317.6875 318.355469 C 319.4375 318.890625 319.523438 318.890625 321.273438 318.355469 C 320.539062 315.816406 321.050781 315.136719 321.273438 312.378906 C 317.75 312.042969 317.425781 314.910156 317.6875 318.355469 Z M 309.914062 320.742188 C 315.054688 320.902344 312.605469 313.476562 314.695312 310.585938 C 314.003906 310.085938 313.09375 309.800781 311.710938 309.988281 C 310.421875 312.882812 310.351562 317 309.914062 320.742188 Z M 279.4375 307.597656 C 279.570312 309.882812 276.378906 310.808594 278.242188 312.976562 C 281.640625 312.199219 281.398438 309.992188 281.230469 307.597656 Z M 81.027344 292.058594 C 87.246094 297.75 99.285156 290.394531 107.320312 292.660156 C 119.183594 295.992188 117.933594 313.066406 125.851562 318.355469 C 132.160156 322.570312 143.351562 319.964844 146.167969 315.367188 C 150.796875 307.804688 146.980469 297.386719 152.144531 293.25 C 157.167969 289.234375 166.664062 292.636719 173.660156 293.25 C 179.226562 293.742188 184.273438 294 189.195312 293.847656 C 200.570312 293.507812 223.058594 294.757812 225.652344 283.691406 C 229.546875 282.054688 233.851562 284.371094 236.410156 283.691406 C 236.140625 277.867188 227.78125 278.417969 223.261719 280.109375 C 221.011719 281.039062 222.101562 285.324219 219.675781 286.082031 C 202.515625 289.257812 186.53125 290.980469 171.265625 289.667969 C 162.65625 288.925781 152.660156 285.089844 147.960938 292.058594 C 144.890625 296.617188 147.136719 307.839844 143.179688 312.976562 C 135.859375 322.480469 125.785156 312.726562 123.460938 307.597656 C 119.746094 299.414062 116.554688 290.921875 107.320312 288.472656 C 99.386719 286.367188 94.238281 291.976562 85.808594 290.265625 C 84.605469 290.019531 83.660156 289.496094 82.929688 288.757812 C 82.546875 288.367188 82.21875 287.921875 81.945312 287.425781 C 81.863281 287.273438 81.785156 287.121094 81.710938 286.964844 C 81.671875 286.875 81.632812 286.785156 81.589844 286.695312 C 81.578125 286.664062 81.5625 286.628906 81.550781 286.597656 C 81.515625 286.503906 81.476562 286.410156 81.441406 286.316406 C 81.441406 286.3125 81.441406 286.3125 81.441406 286.3125 C 81.398438 286.203125 81.363281 286.089844 81.324219 285.976562 C 80.007812 281.929688 80.917969 275.921875 81.625 271.429688 C 81.707031 270.921875 81.785156 270.433594 81.855469 269.96875 C 81.863281 269.902344 81.875 269.835938 81.886719 269.769531 C 81.914062 269.574219 81.941406 269.382812 81.96875 269.199219 C 81.988281 269.074219 82.003906 268.949219 82.019531 268.832031 C 82.054688 268.59375 82.085938 268.363281 82.113281 268.144531 C 82.125 268.035156 82.136719 267.925781 82.148438 267.824219 C 82.160156 267.71875 82.167969 267.613281 82.179688 267.515625 C 82.1875 267.417969 82.195312 267.320312 82.203125 267.226562 C 82.210938 267.132812 82.214844 267.042969 82.222656 266.957031 C 75.738281 270.085938 75.535156 287.027344 81.027344 292.058594 Z M 61.902344 298.632812 C 66.210938 293.324219 72.8125 270.652344 62.503906 269.351562 C 59.648438 268.992188 56.785156 271.136719 55.925781 274.128906 C 57.976562 277.007812 59.929688 273.078125 63.101562 273.53125 C 68.460938 290.65625 43.90625 289.128906 42.78125 275.921875 C 42.113281 268.09375 50.609375 259.230469 54.132812 252.613281 C 60.847656 240.015625 64.277344 228.152344 74.453125 219.746094 C 77.777344 217.003906 94.917969 211.632812 101.347656 210.78125 C 108.730469 209.804688 116.628906 209.414062 124.054688 208.394531 C 168.011719 202.355469 228.535156 210.617188 273.460938 206.003906 C 273.984375 207.960938 268.140625 211.882812 265.09375 214.367188 C 261.5 217.304688 257.703125 220.09375 254.933594 222.734375 C 250.570312 222.949219 244.707031 221.667969 244.777344 226.320312 C 251.007812 227.628906 255.839844 227.394531 262.105469 226.917969 C 262.277344 227.019531 262.449219 227.125 262.617188 227.226562 C 262.789062 227.332031 262.953125 227.4375 263.121094 227.550781 C 263.285156 227.65625 263.449219 227.769531 263.609375 227.882812 C 263.769531 227.996094 263.929688 228.113281 264.082031 228.230469 C 264.242188 228.347656 264.394531 228.46875 264.542969 228.585938 L 264.546875 228.585938 C 264.699219 228.710938 264.847656 228.835938 264.996094 228.960938 C 265.140625 229.085938 265.289062 229.214844 265.433594 229.34375 C 265.578125 229.472656 265.71875 229.605469 265.859375 229.742188 C 265.996094 229.875 266.136719 230.011719 266.273438 230.148438 C 266.40625 230.285156 266.539062 230.429688 266.671875 230.570312 C 266.9375 230.851562 267.195312 231.144531 267.441406 231.445312 C 267.5625 231.59375 267.6875 231.746094 267.808594 231.898438 C 267.929688 232.050781 268.046875 232.207031 268.164062 232.363281 C 268.28125 232.519531 268.394531 232.679688 268.507812 232.839844 C 268.621094 233 268.734375 233.164062 268.84375 233.328125 C 268.953125 233.492188 269.0625 233.660156 269.167969 233.824219 C 269.378906 234.160156 269.585938 234.503906 269.785156 234.855469 C 269.882812 235.027344 269.980469 235.203125 270.078125 235.382812 C 270.265625 235.738281 270.453125 236.101562 270.632812 236.46875 C 271.527344 238.316406 272.261719 240.320312 272.863281 242.457031 C 276.835938 242.628906 279.890625 237.773438 284.816406 236.480469 C 294.289062 233.992188 311.042969 237.6875 315.292969 243.648438 C 318.363281 247.960938 316.304688 253.597656 318.882812 259.1875 C 323.808594 258.488281 320.371094 254.046875 320.671875 250.226562 C 328.171875 243.734375 336.988281 237.191406 345.816406 231.65625 C 346.449219 231.257812 347.078125 230.871094 347.710938 230.484375 C 348.546875 229.972656 349.390625 229.46875 350.226562 228.976562 C 350.855469 228.605469 351.484375 228.242188 352.109375 227.886719 C 352.734375 227.527344 353.359375 227.175781 353.980469 226.832031 C 355.433594 226.03125 356.875 225.265625 358.300781 224.539062 C 358.707031 224.335938 359.113281 224.132812 359.519531 223.929688 C 364.71875 231.355469 366.660156 242.046875 369.078125 252.613281 C 372.140625 265.980469 376.269531 279.828125 373.863281 294.449219 C 371.75 295.726562 370.425781 297.789062 367.886719 298.632812 C 362.933594 293.625 355.386719 291.210938 349.953125 286.679688 C 349.273438 283.179688 349.28125 278.988281 349.355469 274.726562 C 347.023438 273.539062 344.976562 275.265625 341.589844 274.726562 C 340.097656 272.601562 338.980469 269.789062 339.199219 267.558594 C 331.128906 268.285156 338.066406 280.5625 345.175781 278.910156 C 346.269531 281.667969 345.191406 284.960938 346.371094 287.875 C 348.871094 294.0625 358.5625 294.546875 362.507812 299.230469 C 364.320312 301.382812 364.285156 304.78125 365.496094 307 C 368.242188 312.046875 374.484375 315.023438 374.460938 321.34375 C 374.421875 324.289062 369.863281 322.71875 369.078125 324.925781 C 377.867188 350.945312 346.359375 361.425781 328.445312 348.234375 C 320.988281 361.554688 300.476562 362.109375 286.011719 356.003906 C 283.960938 352.9375 283.40625 349.964844 282.425781 347.039062 C 278.898438 347.792969 277.726562 352.136719 275.253906 353.613281 C 270.300781 356.578125 257.390625 357.882812 248.363281 358.390625 C 207.789062 360.703125 160.824219 363.277344 117.484375 358.992188 C 94.261719 356.699219 68.425781 359.636719 45.765625 356.601562 C 45.714844 355.109375 46.3125 353.660156 47.238281 352.257812 C 47.316406 352.136719 47.402344 352.015625 47.488281 351.894531 C 47.785156 351.46875 48.109375 351.050781 48.453125 350.636719 C 48.554688 350.519531 48.652344 350.402344 48.753906 350.285156 C 49.007812 349.992188 49.265625 349.703125 49.53125 349.417969 C 49.6875 349.246094 49.847656 349.074219 50.011719 348.90625 C 50.226562 348.679688 50.441406 348.457031 50.660156 348.234375 C 50.765625 348.125 50.875 348.011719 50.984375 347.90625 C 51.089844 347.792969 51.199219 347.6875 51.304688 347.578125 C 51.410156 347.46875 51.519531 347.363281 51.625 347.253906 C 51.675781 347.199219 51.730469 347.148438 51.78125 347.09375 C 51.886719 346.988281 51.992188 346.882812 52.09375 346.777344 C 52.144531 346.722656 52.195312 346.671875 52.25 346.621094 C 52.402344 346.460938 52.550781 346.304688 52.699219 346.152344 C 52.894531 345.945312 53.085938 345.746094 53.269531 345.542969 C 53.359375 345.445312 53.449219 345.34375 53.539062 345.246094 C 64.695312 343.132812 75.785156 346.046875 81.628906 351.222656 C 87.257812 343.609375 90.144531 334.183594 98.953125 330.90625 C 117.730469 323.921875 136.375 340.984375 146.765625 350.625 C 150.144531 344.367188 140.269531 342.332031 138.398438 337.476562 C 127.835938 331.464844 113.007812 322.679688 99.554688 326.71875 C 90.238281 329.519531 85.785156 337.417969 81.027344 345.84375 C 73.292969 341.703125 66.285156 340.46875 54.730469 340.464844 C 55.121094 336.027344 56.976562 333.195312 57.121094 328.511719 C 57.417969 319.042969 50.59375 311.671875 55.925781 304.011719 C 57.390625 301.914062 60.003906 300.976562 61.902344 298.632812 Z M 268.082031 308.191406 C 272.132812 310.28125 272.929688 304.402344 274.660156 302.21875 C 271.386719 300.921875 269.371094 305.570312 268.082031 308.191406 Z M 229.835938 340.464844 C 229.769531 339.972656 229.664062 339.515625 229.527344 339.09375 C 229.472656 338.925781 229.410156 338.765625 229.34375 338.605469 C 229.308594 338.527344 229.273438 338.449219 229.238281 338.375 C 229.132812 338.144531 229.011719 337.929688 228.882812 337.71875 C 228.625 337.304688 228.324219 336.933594 227.996094 336.589844 C 227.167969 335.738281 226.140625 335.085938 225.054688 334.492188 C 224.789062 338.34375 226.40625 340.308594 229.835938 340.464844 " fill-opacity="1" fill-rule="nonzero"/><path fill="#1c1c1c" d="M 373.863281 357.796875 C 375.894531 382.546875 338.332031 373.382812 315.890625 373.332031 C 304.777344 373.308594 293.214844 375.574219 281.230469 375.726562 C 243.84375 376.199219 211.699219 377.324219 178.441406 380.507812 C 155.492188 382.703125 132.074219 381.105469 109.113281 381.105469 C 96.570312 381.105469 84.222656 381.28125 72.660156 379.910156 C 61.203125 378.554688 48.914062 378.59375 40.390625 375.726562 C 31.984375 372.898438 20.769531 363.511719 31.425781 355.40625 C 34.660156 356.707031 29.800781 361.253906 30.828125 364.371094 C 31.890625 367.59375 40.738281 372.199219 45.765625 373.332031 C 50.5625 374.414062 56.617188 373.734375 62.503906 374.53125 C 116.039062 381.761719 187.082031 375.382812 235.214844 373.332031 C 251.40625 372.644531 268.03125 372.085938 284.21875 371.542969 C 297.101562 371.109375 310.054688 368.898438 325.457031 369.746094 C 341.71875 370.648438 364.011719 373.167969 370.277344 363.773438 C 371.390625 362.105469 371.625 357.882812 373.863281 357.796875 " fill-opacity="1" fill-rule="nonzero"/><g fill="#1d1b20" fill-opacity="1"><g transform="translate(138.865855, 130.681147)"><g><path d="M 5.921875 -5.59375 L 0.921875 -5.59375 L 0.921875 -6.875 L 5.921875 -6.875 Z M 5.921875 -5.59375 "/></g></g></g></svg>